<svg xmlns="http://www.w3.org/2000/svg" width="200" height="100" viewBox="0 0 200 100" fill="none">
<path d="M47.4787 27H48.7408C53.1222 27.0927 57.4321 28.8082 60.5277 31.8449C59.3847 32.9808 58.2179 34.0703 57.0988 35.2062C55.3605 33.6762 53.265 32.494 50.9791 32.0767C47.5978 31.3813 43.9545 32.0072 41.1209 33.8849C38.0253 35.8553 35.9299 39.1934 35.4775 42.7634C34.9774 46.2869 36.0013 49.996 38.3587 52.7314C40.6209 55.3972 44.0736 57.0663 47.6454 57.1822C50.9791 57.3677 54.4556 56.3709 56.8845 54.0991C58.7894 52.4996 59.6705 50.0655 59.9562 47.701C56.0034 47.701 52.0506 47.7242 48.0978 47.701V42.9256H64.7424C65.5997 48.0487 64.3614 53.8209 60.361 57.4836C57.6941 60.0799 54.0032 61.6099 50.2409 61.9112C46.5977 62.2589 42.8354 61.5867 39.5969 59.8712C35.7156 57.8545 32.62 54.4468 31.096 50.4364C29.6673 46.7506 29.6435 42.5779 30.977 38.8689C32.1914 35.4844 34.525 32.494 37.5253 30.4077C40.4065 28.3445 43.9069 27.2086 47.4787 27Z" fill="#B8BCC2"/>
<path d="M141 28H146V61.994C144.341 61.994 142.659 62.0179 141 61.9702C141.023 50.6627 141 39.3313 141 28Z" fill="#B8BCC2"/>
<path d="M75.2588 39.2099C78.3753 38.6183 81.7515 39.2809 84.3249 41.1505C86.6622 42.8071 88.2913 45.4104 88.7871 48.2503C89.4245 51.5399 88.6218 55.1371 86.497 57.7403C84.2068 60.6512 80.4529 62.2132 76.7935 61.9765C73.4409 61.7872 70.1828 60.1069 68.1996 57.3617C65.9567 54.3324 65.4137 50.1672 66.6414 46.6174C67.8691 42.8071 71.3397 39.8962 75.2588 39.2099ZM75.9671 43.7065C74.6922 44.0378 73.5117 44.7714 72.6618 45.8127C70.3717 48.558 70.5133 53.0308 73.0396 55.5867C74.4797 57.054 76.6518 57.7403 78.6586 57.338C80.5238 57.0067 82.1528 55.7524 83.05 54.0958C84.6082 51.2795 84.1596 47.3983 81.7751 45.1974C80.2405 43.7775 77.9975 43.1858 75.9671 43.7065Z" fill="#B8BCC2"/>
<path d="M100.258 39.2118C103.826 38.5252 107.724 39.5196 110.394 42.0292C114.742 45.9357 115.214 53.2516 111.505 57.75C109.26 60.5912 105.622 62.1538 102.03 61.988C98.6044 61.8933 95.2258 60.1887 93.1938 57.3712C90.902 54.2697 90.4058 50.008 91.7053 46.3856C93.0048 42.6921 96.4071 39.8747 100.258 39.2118ZM100.967 43.7102C99.6913 44.0417 98.5099 44.7756 97.6593 45.7937C95.3911 48.4927 95.4856 52.8965 97.9192 55.4771C99.3605 57.0161 101.605 57.7737 103.684 57.3475C105.527 56.9924 107.181 55.7613 108.079 54.1039C109.615 51.2628 109.166 47.38 106.756 45.1781C105.22 43.7575 102.975 43.1893 100.967 43.7102Z" fill="#B8BCC2"/>
<path d="M121.536 40.5704C124.253 38.8822 127.867 38.4132 130.796 39.867C131.717 40.2656 132.473 40.9455 133.205 41.6255C133.229 40.9924 133.205 40.3359 133.229 39.6794C134.811 39.7028 136.394 39.6794 138 39.7028V60.3831C137.976 63.5015 137.173 66.8075 134.906 69.0819C132.426 71.5907 128.623 72.3645 125.198 71.8486C121.536 71.3094 118.348 68.6599 116.93 65.3069C118.348 64.627 119.836 64.0877 121.3 63.4546C122.127 65.3773 123.804 67.0186 125.906 67.3937C128.008 67.7689 130.441 67.253 131.811 65.518C133.276 63.736 133.276 61.2975 133.205 59.1169C132.118 60.1721 130.867 61.1099 129.355 61.4616C126.072 62.3761 122.458 61.2506 119.93 59.0466C117.379 56.8426 115.867 53.4428 116.009 50.0664C116.08 46.2445 118.253 42.5634 121.536 40.5704ZM126.426 43.5716C124.985 43.8061 123.639 44.6033 122.717 45.7053C120.497 48.3313 120.497 52.5283 122.741 55.1075C124.017 56.6316 126.072 57.4756 128.056 57.2646C129.922 57.077 131.646 55.9047 132.567 54.2869C134.126 51.5436 133.866 47.8155 131.764 45.4239C130.465 43.9467 128.386 43.2199 126.426 43.5716Z" fill="#B8BCC2"/>
<path d="M152.551 41.8062C155.362 39.1562 159.695 38.257 163.302 39.653C166.721 40.9544 168.899 44.2433 170 47.6269C164.918 49.7564 159.859 51.8622 154.776 53.9917C155.479 55.3404 156.556 56.5708 158.008 57.0677C160.046 57.8012 162.482 57.5409 164.192 56.1685C164.871 55.648 165.409 54.9618 165.925 54.2993C167.213 55.1748 168.501 56.0266 169.789 56.902C167.962 59.6704 164.894 61.6106 161.592 61.9182C157.938 62.3678 154.05 60.9481 151.685 58.0614C147.797 53.5185 148.171 45.8996 152.551 41.8062ZM155.057 46.1835C154.261 47.3429 153.933 48.7626 153.956 50.1586C157.353 48.7389 160.749 47.3193 164.145 45.8759C163.583 44.5509 162.224 43.7464 160.842 43.5335C158.617 43.1312 156.299 44.3379 155.057 46.1835Z" fill="#B8BCC2"/>
</svg>