<svg xmlns="http://www.w3.org/2000/svg" width="200" height="100" viewBox="0 0 200 100" fill="none">
  <path d="M100.71 60.8747C100.71 61.3675 100.71 61.4795 101.038 61.7819L102.875 63.6187V63.6971H94.7316V60.1691C93.9118 62.4942 91.7441 64.032 89.3316 63.9995C85.1453 63.9995 82.1065 60.6395 82.1065 54.4571C82.1065 48.6668 85.3855 44.8028 89.9874 44.8028C92.0274 44.6714 93.9258 45.8754 94.7205 47.8044V40.0208C94.7504 39.8445 94.7314 39.6632 94.6658 39.4972C94.6002 39.3311 94.4904 39.1867 94.3488 39.08L92.5999 37.3552V37.2768L100.71 36.3024V60.8747ZM94.7316 59.7547V48.1404C94.4423 47.7707 94.073 47.4733 93.6521 47.2714C93.2313 47.0694 92.7704 46.9682 92.3048 46.9756C90.3264 46.9756 88.4135 48.8124 88.4135 54.2667C88.4135 59.3739 90.064 61.1771 92.1191 61.1771C92.6343 61.1654 93.1395 61.0305 93.5935 60.7833C94.0474 60.5361 94.4373 60.1836 94.7312 59.7547H94.7316ZM106.11 63.6971V48.0172C106.136 47.8451 106.12 47.6693 106.062 47.5052C106.005 47.3411 105.909 47.1938 105.782 47.0764L103.979 45.1724V45.094H112.122V60.9979C112.122 61.4907 112.122 61.6027 112.45 61.9051L114.243 63.6299V63.7083L106.11 63.6971ZM105.815 39.3596C105.815 37.5042 107.283 36 109.094 36C110.905 36 112.373 37.5045 112.373 39.36C112.373 41.2154 110.905 42.72 109.094 42.72C107.284 42.72 105.815 41.2154 105.815 39.36V39.3596ZM134.093 60.8411C134.093 61.3339 134.093 61.4795 134.42 61.7819L136.257 63.6187V63.6971H128.07V59.6763C127.324 62.2187 125.053 63.9696 122.463 63.9995C118.834 63.9995 116.888 61.2891 116.888 56.1595C116.888 53.6843 116.888 50.974 116.964 47.9276C116.994 47.7605 116.979 47.5884 116.922 47.429C116.864 47.2696 116.766 47.1286 116.636 47.0204L114.833 45.1724V45.094H122.911V55.3195C122.911 58.6795 123.392 60.9195 125.446 60.9195C125.992 60.8835 126.519 60.7099 126.981 60.4146C127.443 60.1192 127.825 59.7114 128.092 59.2283V48.0284C128.118 47.8563 128.101 47.6805 128.044 47.5164C127.987 47.3523 127.891 47.205 127.764 47.0876L125.949 45.1724V45.094H134.093V60.8411ZM161.813 63.6971C161.813 63.0923 161.922 55.3867 161.922 53.6171C161.922 50.2572 161.408 47.9388 159.102 47.9388C158.528 47.9579 157.967 48.1138 157.463 48.3941C156.96 48.6743 156.529 49.0709 156.206 49.5516C156.437 50.5988 156.547 51.6702 156.533 52.7435C156.533 55.0731 156.457 58.0411 156.424 61.0091C156.394 61.1762 156.409 61.3483 156.467 61.5077C156.524 61.6671 156.623 61.8081 156.752 61.9163L158.589 63.6411V63.7195H150.369C150.369 63.1595 150.478 55.4091 150.478 53.6395C150.478 50.2236 149.964 47.9612 147.691 47.9612C147.137 47.9826 146.598 48.1459 146.124 48.4358C145.65 48.7257 145.256 49.1327 144.98 49.6188V61.0427C144.98 61.5355 144.98 61.6475 145.308 61.9499L147.1 63.6747V63.7531H138.968V48.0732C138.994 47.9011 138.977 47.7253 138.92 47.5612C138.863 47.3971 138.767 47.2498 138.64 47.1324L136.836 45.1724V45.094H144.98V49.0812C145.735 46.4492 148.141 44.6803 150.817 44.7916C153.528 44.7916 155.364 46.3372 156.14 49.2716C157.002 46.5653 159.483 44.7494 162.261 44.7916C165.89 44.7916 167.945 47.5356 167.945 52.7211C167.945 55.1963 167.869 58.0187 167.836 60.9867C167.804 61.1581 167.823 61.3351 167.889 61.4961C167.955 61.6572 168.065 61.7954 168.207 61.8939L170 63.6187V63.6971H161.813ZM59.5127 61.2555L61.9285 63.6187V63.6971H49.6752V63.6187L52.1347 61.2555C52.2638 61.1473 52.3622 61.0063 52.4199 60.8469C52.4775 60.6875 52.4922 60.5154 52.4626 60.3483V45.2396C52.4626 44.6012 52.4626 43.7388 52.5717 42.9996L44.308 63.9999H44.21L35.6512 44.68C35.4652 44.1984 35.4106 44.1648 35.2902 43.84V56.5071C35.1877 57.3544 35.3283 58.2138 35.6951 58.9823L39.1379 63.6191V63.6975H30V63.6191L33.4433 58.9711C33.807 58.2056 33.9473 57.3507 33.8474 56.5071V42.5072C33.9038 41.819 33.7008 41.1346 33.2793 40.592L30.8418 37.3552V37.2768H39.5863L46.9098 53.6399L53.359 37.2768H61.9174V37.3552L59.5127 40.0992C59.3711 40.2059 59.2613 40.3503 59.1957 40.5164C59.1301 40.6824 59.1112 40.8637 59.141 41.04V60.3487C59.1097 60.5202 59.1281 60.6972 59.1942 60.8582C59.2603 61.0193 59.371 61.1574 59.5131 61.2559L59.5127 61.2555ZM69.0991 53.6843V53.7627C69.0991 58.5563 71.5148 60.4827 74.3457 60.4827C76.7095 60.5652 78.8976 59.207 79.9203 57.0219H79.9969C79.0133 61.7595 76.1492 63.9995 71.8644 63.9995C67.2407 63.9995 62.8794 61.1435 62.8794 54.5243C62.8794 47.5692 67.2518 44.7916 72.0829 44.7916C75.9745 44.7916 80.1171 46.6732 80.1171 52.7211V53.6843H69.0991ZM69.0991 52.7211H74.4879V51.7468C74.4879 46.8188 73.4932 45.5084 71.9956 45.5084C70.1811 45.5084 69.0773 47.4684 69.0773 52.7211H69.0991Z" fill="#B8BCC2"/>
</svg>