<svg xmlns="http://www.w3.org/2000/svg" width="200" height="100" viewBox="0 0 200 100" fill="none">
  <path d="M72.7749 46.0822C74.3772 46.0822 75.6761 44.7524 75.6761 43.1122C75.6761 41.4717 74.3772 40.1422 72.7749 40.1422C71.1725 40.1422 69.8737 41.4717 69.8737 43.1122C69.8737 44.7524 71.1725 46.0822 72.7749 46.0822ZM168.522 56.2297C168.08 55.912 167.74 55.8594 167.457 56.4762C162.584 67.2772 154.373 61.8873 155.189 62.3617C157.01 61.509 161.8 57.5771 161.076 52.1481C160.637 48.8303 157.854 47.3586 154.901 47.8855C149.745 48.8054 147.849 54.4963 148.814 59.5347C148.983 60.3999 149.285 61.1135 149.587 61.8126C143.761 66.6612 141.447 57.4722 141.185 56.3741C141.174 56.3153 145.683 52.4691 146.937 43.3039C148.251 33.6982 145.257 31.9491 142.196 32.0037C136.53 32.1047 134.999 44.2195 137.056 54.3164C136.884 54.3623 136.082 54.8167 134.794 54.8677C133.867 51.8825 129.906 49.266 128.869 50.2743C126.275 52.7965 129.499 57.7277 131.767 58.1144C130.404 66.7032 121.883 64.5761 123.469 53.8157C126.244 48.542 128.355 40.7005 127.978 35.9666C127.845 34.2906 126.634 32.0451 123.896 32.1565C118.629 32.3697 118.056 44.4879 118.674 53.0887C118.643 52.8768 118.35 54.1336 116.192 54.7585C115.681 51.8585 111.119 48.9475 110.045 50.347C108.034 52.9664 111.518 57.6367 113.169 57.9625C111.806 66.551 103.286 64.4238 104.872 53.6635C107.647 48.3901 109.757 40.5485 109.38 35.8146C109.247 34.1384 108.036 31.8929 105.298 32.004C100.031 32.2175 99.4585 44.3357 100.076 52.9364C100.045 52.7212 99.7451 54.0194 97.4988 54.634C97.4236 50.8715 92.8444 49.1462 91.7443 50.3468C89.7838 52.4867 92.1933 56.8775 94.4224 57.9625C93.0598 66.551 84.539 64.4238 86.1252 53.6635C88.9 48.3901 91.0104 40.5485 90.6336 35.8146C90.5005 34.1384 89.2897 31.8929 86.5512 32.004C81.2848 32.2175 80.861 44.9449 81.4784 53.5454C79.7437 61.1519 73.9263 70.651 74.6821 51.6223C74.7568 50.2874 74.8382 49.7806 74.188 49.2808C73.7007 48.8924 72.5928 49.0793 71.9871 49.0947C71.251 49.1249 71.0664 49.5657 70.9038 50.232C70.5248 51.9525 70.4567 53.6204 70.4025 55.8961C70.367 56.9606 70.2836 57.4574 69.883 58.9089C69.483 60.3602 67.2006 63.0129 65.951 62.5693C64.2174 61.9592 64.7861 56.9506 65.111 53.5093C65.3817 50.7897 64.5149 49.5685 62.294 49.1244C60.9938 48.8471 60.2039 48.8896 58.8498 48.4528C57.5693 48.0397 57.2797 45.5608 54.5486 46.3869C53.0549 46.8392 54.0152 50.0784 53.6561 52.4792C51.8911 64.289 48.2186 64.6133 46.5148 58.8765C54.1883 39.6424 48.7346 32.0597 45.5422 32.0597C42.2172 32.0597 38.4164 34.4036 40.0258 49.4012C39.2433 49.1675 39.0026 49.0415 38.146 49.0415C33.3009 49.0415 30 53.0501 30 57.9949C30 62.9398 33.3012 66.9486 38.1462 66.9486C41.0064 66.9486 43.0145 65.6174 44.5354 63.558C45.5277 65.0124 46.736 66.971 48.9456 66.8829C55.5319 66.6204 57.4474 52.7934 57.6735 52.0222C58.3776 52.1333 59.0437 52.3435 59.6939 52.4546C60.7773 52.6211 60.856 53.0599 60.8314 54.175C60.5443 63.579 62.2399 66.8717 66.0861 66.8717C68.229 66.8717 70.1389 64.7168 71.4547 63.176C72.4375 65.2519 74.0034 66.8081 76.1043 66.8714C81.1948 67.0009 83.1439 58.6971 82.9662 59.7899C82.8267 60.6473 84.6177 66.8246 89.8584 66.847C96.3501 66.875 97.5568 59.5688 97.7006 58.345C97.7186 58.1016 97.7266 58.1267 97.7006 58.345L97.6957 58.4192C99.7566 58.0268 100.82 56.896 100.82 56.896C100.82 56.896 102.475 66.9606 108.605 66.8473C114.97 66.7292 116.171 60.1249 116.328 58.837C116.349 58.5314 116.361 58.5672 116.328 58.837C116.327 58.8496 116.327 58.8622 116.326 58.8748C118.774 57.9633 119.418 57.0485 119.418 57.0485C119.418 57.0485 120.733 66.9131 127.203 66.9993C132.968 67.0765 135.104 61.0343 135.117 58.5054C136.089 58.516 137.888 57.9149 137.846 57.8808C137.846 57.8808 139.958 66.5056 145.855 66.9486C148.624 67.1565 150.701 65.3541 151.885 64.5319C154.667 66.8381 163.933 69.7837 169.783 59.6323C170.609 58.1754 168.833 56.4544 168.522 56.2297ZM37.9125 63.6C35.0857 63.6 33.273 60.9249 33.273 58.0406C33.273 55.1565 34.9369 52.4814 37.7637 52.4814C39.0357 52.4814 39.7434 52.6247 40.7341 53.5065C40.9137 54.231 41.4228 55.9023 41.6706 56.6612C42.0025 57.6768 42.3974 58.5412 42.7955 59.482C42.2267 61.8952 40.3622 63.6 37.9125 63.6ZM44.8009 53.5913C44.6833 53.3996 44.7079 53.5174 44.5764 53.3363C44.0582 51.8937 43.0596 48.6738 42.944 45.0165C42.8133 40.8793 43.487 36.0298 45.4733 36.0298C46.8191 36.0298 48.2495 45.858 44.8006 53.5913H44.8009ZM84.6027 49.2805C84.2839 46.8254 84.2672 35.8807 86.8345 36.1821C88.252 36.7697 85.9357 47.0975 84.6027 49.2805ZM103.349 49.2805C103.03 46.8254 103.014 35.8807 105.581 36.1821C106.999 36.7697 104.682 47.0975 103.349 49.2805ZM121.947 49.4331C121.628 46.9777 121.612 36.0329 124.179 36.3343C125.596 36.922 123.28 47.25 121.947 49.4331ZM142.479 35.5415C144.826 35.2924 144.729 45.7827 140.018 52.4056C139.41 50.0118 138.479 36.3634 142.479 35.5412V35.5415ZM152.345 58.1144C151.591 54.217 153.539 51.6573 155.547 51.3766C156.249 51.2618 157.266 51.7272 157.469 52.5973C157.802 54.2369 157.42 56.669 152.926 59.7549C152.932 59.7812 152.513 58.9825 152.345 58.1144H152.345Z" fill="#B8BCC2"/>
</svg>