<svg xmlns="http://www.w3.org/2000/svg" width="200" height="100" viewBox="0 0 200 100" fill="none">
  <path d="M59.7941 54.1008V67.7101C59.7941 67.9307 59.7069 68.1423 59.5516 68.2983C59.3964 68.4543 59.1859 68.5419 58.9663 68.5419H54.691C54.4715 68.5418 54.261 68.4542 54.1058 68.2982C53.9506 68.1422 53.8633 67.9307 53.8633 67.7101V45.5739C53.8633 45.3533 53.9505 45.1417 54.1057 44.9857C54.2609 44.8297 54.4715 44.7421 54.691 44.7421H58.6473C58.8669 44.7421 59.0774 44.8297 59.2327 44.9857C59.3879 45.1417 59.4751 45.3533 59.4751 45.5739V48.6912C59.4751 48.6912 60.8894 44.2444 65.0866 44.2444C65.0866 44.2444 69.2382 43.7401 70.9262 48.3703C70.9262 48.3703 72.3405 44.2444 76.6289 44.2444C76.6289 44.2444 83.0065 43.8634 83.0065 50.4946L83.055 54.1466V67.756C83.055 67.9766 82.9678 68.1882 82.8126 68.3441C82.6573 68.5001 82.4468 68.5878 82.2273 68.5878H77.9516C77.7321 68.5877 77.5216 68.5 77.3664 68.344C77.2111 68.1881 77.1239 67.9766 77.1238 67.756L77.0848 52.9089C77.2063 49.5469 74.4996 49.7915 74.4996 49.7915C71.0933 49.8527 71.4211 54.1466 71.4211 54.1466V67.756C71.4211 67.9766 71.3339 68.1882 71.1786 68.3441C71.0234 68.5001 70.8129 68.5878 70.5933 68.5878H66.318C66.0985 68.5877 65.888 68.5 65.7328 68.344C65.5776 68.1881 65.4903 67.9766 65.4902 67.756V53.2448C65.4902 53.2448 65.7403 49.7607 62.6986 49.7607C62.6989 49.7607 59.6879 49.3635 59.7941 54.1008ZM170 54.0601V67.6691C170 67.8896 169.913 68.1012 169.757 68.2571C169.602 68.4131 169.392 68.5008 169.172 68.5009L164.726 68.5874C164.506 68.5873 164.296 68.4996 164.141 68.3437C163.985 68.1877 163.898 67.9762 163.898 67.7556V53.2448C163.898 53.2448 164.148 49.7607 161.107 49.7607C161.107 49.7607 158.202 49.6169 158.202 55.0797V67.7098C158.202 67.9303 158.114 68.1419 157.959 68.2978C157.804 68.4538 157.594 68.5415 157.374 68.5416H153.098C152.879 68.5415 152.668 68.4538 152.513 68.2978C152.358 68.1419 152.271 67.9303 152.271 67.7098V45.5739C152.271 45.3533 152.358 45.1418 152.513 44.9858C152.668 44.8299 152.879 44.7422 153.098 44.7421H157.055C157.274 44.7421 157.485 44.8297 157.64 44.9857C157.795 45.1417 157.882 45.3533 157.882 45.5739V48.6912C157.882 48.6912 159.297 44.2444 163.494 44.2444C163.494 44.2444 167.99 43.559 169.504 48.2842C169.505 48.2838 170 49.2586 170 54.0601ZM139.13 44.1527C133.663 44.1527 129.231 48.7829 129.231 56.5764C129.231 63.4379 132.652 69 139.13 69C145.244 69 149.03 63.4379 149.03 56.5764C149.03 48.9205 144.598 44.1527 139.13 44.1527ZM142.581 56.8514C142.581 59.7854 142.216 61.3441 142.216 61.3441C141.697 64.4457 139.456 64.4501 139.126 64.4336C138.769 64.4479 136.51 64.4156 136.042 61.3441C136.042 61.3441 135.677 59.7854 135.677 56.8514V56.3625C135.677 53.4285 136.042 51.8699 136.042 51.8699C136.51 48.7983 138.77 48.7661 139.126 48.78C139.456 48.7635 141.697 48.7675 142.216 51.8699C142.216 51.8699 142.581 53.4285 142.581 56.3625V56.8514ZM126.749 48.6604V45.4844C126.749 45.2638 126.662 45.0523 126.506 44.8963C126.351 44.7404 126.141 44.6527 125.921 44.6526H111.789C111.57 44.6526 111.359 44.7402 111.204 44.8962C111.049 45.0522 110.962 45.2638 110.962 45.4844V48.6359C110.962 48.8564 111.049 49.068 111.204 49.2239C111.359 49.3799 111.57 49.4676 111.789 49.4677H119.161L110.436 62.1865C110.436 62.1865 110.092 62.7022 110.103 63.2717V67.1406C110.103 67.1406 110.046 68.4671 111.543 67.6973C111.543 67.6973 114.203 66.0829 118.662 66.0829C118.662 66.0829 123.065 66.0279 126.001 67.8363C126.001 67.8363 127.219 68.393 127.219 67.1688V63.8013C127.219 63.8013 127.33 62.9101 126.167 62.3538C126.167 62.3538 122.788 60.4892 118.357 60.7951L126.749 48.6604ZM50.5635 64.5832L49.2252 62.536C48.7992 61.7717 48.8299 60.9157 48.8299 60.9157V51.4723C49.0124 43.3121 40.0095 44.0152 40.0095 44.0152C32.0064 44.0152 30.8242 50.2738 30.8242 50.2738C30.4906 51.5321 31.4607 51.5625 31.4607 51.5625L35.3714 51.9612C35.3714 51.9612 36.0383 52.1145 36.281 51.3168C36.281 51.3168 36.7959 48.5864 39.676 48.5864C42.8096 48.5864 42.7771 51.2889 42.7771 51.2889V53.5514C36.5215 53.7616 33.6225 55.5066 33.6225 55.5066C29.76 57.707 30.003 62.0776 30.003 62.0776C30.003 69.1984 36.7551 68.8925 36.7551 68.8925C41.0738 68.8925 43.6286 65.7143 43.6286 65.7143C44.3889 67.0595 45.7882 68.3424 45.7882 68.3424C46.4882 69.1053 47.2178 68.4649 47.2178 68.4649L50.381 65.7451C51.0803 65.225 50.5635 64.5832 50.5635 64.5832ZM38.8628 64.4952C36.8313 64.4952 36.0762 62.4667 36.4135 60.4731C36.7511 58.4794 38.5044 56.9127 42.7775 56.9585V58.1706C42.929 63.4657 40.5537 64.4952 38.8628 64.4952ZM107.378 64.5832L106.04 62.536C105.614 61.7717 105.644 60.9157 105.644 60.9157V51.4723C105.827 43.3121 96.8237 44.0152 96.8237 44.0152C88.8205 44.0152 87.6384 50.2738 87.6384 50.2738C87.3048 51.5321 88.2749 51.5625 88.2749 51.5625L92.1856 51.9612C92.1856 51.9612 92.8524 52.1145 93.0951 51.3168C93.0951 51.3168 93.6101 48.5864 96.4901 48.5864C99.6238 48.5864 99.5913 51.2889 99.5913 51.2889V53.5514C93.336 53.7616 90.4366 55.5066 90.4366 55.5066C86.5741 57.707 86.8172 62.0776 86.8172 62.0776C86.8172 69.1984 93.5692 68.8925 93.5692 68.8925C97.8879 68.8925 100.443 65.7143 100.443 65.7143C101.203 67.0595 102.602 68.3424 102.602 68.3424C103.302 69.1053 104.032 68.4649 104.032 68.4649L107.195 65.7451C107.894 65.225 107.378 64.5832 107.378 64.5832ZM95.6769 64.4952C93.6455 64.4952 92.8904 62.4667 93.2276 60.4731C93.5652 58.4794 95.3185 56.9127 99.5913 56.9585V58.1706C99.7431 63.4657 97.3682 64.4952 95.6769 64.4952Z" fill="#B8BCC2"/>
  <path d="M118.265 82.0607C118.265 82.0607 117.908 82.6816 118.347 82.8203C118.347 82.8203 118.842 83.0136 119.459 82.4405C119.459 82.4405 123.963 78.5062 124.072 71.3433C124.072 71.3433 124.105 70.4487 123.746 70.204C123.746 70.204 122.335 68.9558 117.261 69.3356C117.261 69.3356 112.839 69.6342 110.424 71.7777C110.424 71.7777 110.207 71.9674 110.207 72.2114C110.207 72.2114 110.155 72.7383 111.482 72.51C111.482 72.51 115.905 71.8855 118.536 72.2114C118.536 72.2114 119.894 72.3741 120.273 72.8358C120.273 72.8358 120.897 73.3514 120.571 75.0602C120.571 75.061 119.676 79.402 118.265 82.0607Z" fill="#B8BCC2"/>
  <path d="M117.374 75.1885C117.374 75.1885 118.034 76.0442 116.968 76.7823C116.968 76.7823 105.584 85.8888 86.4674 85.8888C86.4674 85.8888 66.7897 86.8596 50.3589 71.9308C50.3589 71.9308 49.7829 71.425 50.1404 70.9549C50.1404 70.9549 50.4601 70.5224 51.2878 70.9928C51.2878 70.9928 66.7442 80.6241 87.0437 80.6241C87.0437 80.6241 101.153 81.1702 115.627 74.9803C115.627 74.9803 116.78 74.3827 117.374 75.1885Z" fill="#B8BCC2"/>
</svg>