<svg xmlns="http://www.w3.org/2000/svg" width="200" height="100" viewBox="0 0 200 100" fill="none">
  <path d="M50.9948 29C39.3999 29 30 38.402 30 49.9996C30 61.5985 39.3999 71 50.9948 71C62.5901 71 71.9895 61.5985 71.9895 49.9996C71.9895 38.4027 62.5906 29.001 50.9945 29.001L50.9948 29ZM60.6228 59.2875C60.2458 59.9061 59.44 60.1 58.8235 59.7231C53.8934 56.7091 47.6879 56.0283 40.3799 57.6981C39.6757 57.8596 38.9737 57.418 38.8133 56.7139C38.6521 56.0095 39.0915 55.3073 39.7975 55.1468C47.795 53.318 54.655 54.1052 60.1888 57.4875C60.8056 57.8662 61.0011 58.6711 60.6226 59.288L60.6228 59.2875ZM63.1925 53.5703C62.7177 54.3409 61.7104 54.5826 60.941 54.1094C55.2988 50.6403 46.6954 49.6355 40.0204 51.6622C39.1547 51.9238 38.2404 51.4358 37.9777 50.5714C37.7169 49.7055 38.2051 48.7927 39.0692 48.5294C46.6939 46.2153 56.1725 47.3362 62.6533 51.3197C63.4229 51.7936 63.6661 52.8017 63.1923 53.5705L63.1925 53.5703ZM63.4131 47.6161C56.6456 43.5961 45.4827 43.2264 39.0223 45.1877C37.9849 45.5024 36.8878 44.9166 36.5735 43.8789C36.2591 42.8408 36.8442 41.7442 37.8824 41.4287C45.2985 39.1768 57.6269 39.6119 65.4173 44.2378C66.3504 44.7917 66.6565 45.9971 66.1034 46.9292C65.5519 47.8626 64.3435 48.1703 63.4134 47.6161H63.4131ZM87.1198 48.3864C83.4948 47.5218 82.8495 46.915 82.8495 45.6398C82.8495 44.4351 83.9835 43.6244 85.6697 43.6244C87.3043 43.6244 88.9251 44.24 90.6244 45.5074C90.6758 45.5458 90.7402 45.5611 90.8036 45.551C90.8671 45.5415 90.9232 45.5067 90.9603 45.4542L92.7303 42.9586C92.803 42.8558 92.7832 42.7141 92.6852 42.6356C90.6627 41.0124 88.3853 40.2233 85.7234 40.2233C81.8094 40.2233 79.0754 42.5727 79.0754 45.9342C79.0754 49.539 81.4338 50.8154 85.5093 51.8006C88.978 52.5998 89.5634 53.2694 89.5634 54.4663C89.5634 55.7926 88.3796 56.6171 86.4745 56.6171C84.3586 56.6171 82.6327 55.9042 80.702 54.2318C80.6541 54.1904 80.5884 54.1716 80.5278 54.1751C80.4638 54.1804 80.4054 54.21 80.3648 54.2589L78.3802 56.6214C78.297 56.7194 78.3075 56.8658 78.4038 56.9506C80.6501 58.9565 83.4129 60.016 86.3943 60.016C90.6119 60.016 93.3373 57.7109 93.3373 54.1433C93.3448 51.1316 91.5423 49.464 87.1273 48.3897L87.1198 48.3864ZM102.879 44.8105C101.051 44.8105 99.5515 45.5307 98.315 47.0065V45.3454C98.315 45.2143 98.2087 45.1074 98.0778 45.1074H94.832C94.7008 45.1074 94.5948 45.2143 94.5948 45.3454V63.8023C94.5948 63.9334 94.7008 64.0402 94.832 64.0402H98.0778C98.2087 64.0402 98.315 63.9334 98.315 63.8023V57.9762C99.5517 59.3645 101.051 60.0428 102.879 60.0428C106.276 60.0428 109.715 57.4273 109.715 52.4275C109.72 47.4265 106.28 44.8103 102.883 44.8103L102.879 44.8105ZM105.94 52.4275C105.94 54.9736 104.372 56.7502 102.127 56.7502C99.9077 56.7502 98.2335 54.8928 98.2335 52.4275C98.2335 49.9625 99.9077 48.1048 102.127 48.1048C104.336 48.1046 105.94 49.9221 105.94 52.4273L105.94 52.4275ZM118.528 44.8105C114.154 44.8105 110.726 48.1798 110.726 52.4819C110.726 56.7372 114.13 60.0711 118.474 60.0711C122.865 60.0711 126.302 56.7131 126.302 52.4275C126.302 48.1567 122.888 44.811 118.528 44.811L118.528 44.8105ZM118.528 56.7756C116.201 56.7756 114.447 54.9056 114.447 52.4263C114.447 49.9364 116.141 48.1296 118.474 48.1296C120.816 48.1296 122.582 49.9996 122.582 52.4807C122.582 54.97 120.877 56.7756 118.528 56.7756H118.528ZM135.644 45.1074H132.072V41.4548C132.072 41.3239 131.966 41.2171 131.835 41.2171H128.59C128.458 41.2171 128.352 41.3239 128.352 41.4548V45.1074H126.791C126.66 45.1074 126.555 45.2143 126.555 45.3454V48.1357C126.555 48.2666 126.66 48.3737 126.791 48.3737H128.352V55.5935C128.352 58.5111 129.804 59.9904 132.667 59.9904C133.831 59.9904 134.797 59.7499 135.707 59.2336C135.781 59.1922 135.827 59.1125 135.827 59.0277V56.3706C135.827 56.2886 135.785 56.2111 135.714 56.1682C135.644 56.1238 135.556 56.1216 135.483 56.1574C134.858 56.4722 134.254 56.6173 133.578 56.6173C132.536 56.6173 132.072 56.1444 132.072 55.0844V48.3749H135.644C135.775 48.3749 135.88 48.2681 135.88 48.137V45.3469C135.885 45.2158 135.78 45.109 135.647 45.109L135.644 45.1074ZM148.089 45.1217V44.6731C148.089 43.3533 148.595 42.7648 149.729 42.7648C150.406 42.7648 150.949 42.8992 151.558 43.1023C151.633 43.1259 151.711 43.1141 151.772 43.0692C151.835 43.0243 151.87 42.9523 151.87 42.8761V40.1403C151.87 40.0357 151.803 39.9432 151.702 39.9123C151.059 39.721 150.236 39.5246 149.004 39.5246C146.007 39.5246 144.422 41.2133 144.422 44.4063V45.0934H142.862C142.732 45.0934 142.624 45.2002 142.624 45.3311V48.1357C142.624 48.2666 142.732 48.3736 142.862 48.3736H144.422V59.5099C144.422 59.641 144.528 59.7479 144.659 59.7479H147.904C148.036 59.7479 148.142 59.641 148.142 59.5099V48.3744H151.173L155.815 59.5079C155.288 60.6777 154.77 60.9104 154.062 60.9104C153.491 60.9104 152.888 60.7397 152.273 60.4026C152.215 60.3708 152.146 60.3655 152.084 60.3848C152.022 60.4066 151.97 60.4528 151.943 60.513L150.843 62.9271C150.791 63.0412 150.836 63.1751 150.945 63.2343C152.094 63.8564 153.131 64.122 154.412 64.122C156.809 64.122 158.133 63.0053 159.301 60.0011L164.932 45.4467C164.961 45.3735 164.952 45.2907 164.907 45.2258C164.863 45.1613 164.791 45.1225 164.712 45.1225H161.333C161.232 45.1225 161.141 45.1869 161.108 45.282L157.647 55.1717L153.855 45.2754C153.821 45.1834 153.732 45.1225 153.634 45.1225H148.088L148.089 45.1217ZM140.873 45.1074H137.627C137.496 45.1074 137.39 45.2143 137.39 45.3454V59.5099C137.39 59.641 137.496 59.7479 137.627 59.7479H140.873C141.004 59.7479 141.111 59.641 141.111 59.5099V45.3464C141.111 45.3151 141.105 45.2841 141.093 45.2552C141.081 45.2263 141.064 45.2 141.042 45.1779C141.02 45.1558 140.993 45.1382 140.964 45.1263C140.935 45.1144 140.904 45.1083 140.873 45.1084L140.873 45.1074ZM139.269 38.658C137.983 38.658 136.94 39.6992 136.94 40.9853C136.94 42.2723 137.983 43.3147 139.269 43.3147C140.554 43.3147 141.597 42.2723 141.597 40.9853C141.597 39.6994 140.554 38.658 139.27 38.658H139.269ZM167.704 49.6616C166.419 49.6616 165.42 48.6297 165.42 47.3766C165.42 46.1235 166.432 45.0798 167.716 45.0798C169 45.0798 170 46.1115 170 47.3636C170 48.6167 168.987 49.6616 167.704 49.6616H167.704ZM167.716 45.307C166.546 45.307 165.661 46.2374 165.661 47.3766C165.661 48.5153 166.54 49.4331 167.705 49.4331C168.874 49.4331 169.761 48.5036 169.761 47.3636C169.761 46.2248 168.881 45.307 167.717 45.307H167.716ZM168.223 47.5985L168.869 48.5033H168.324L167.742 47.6733H167.242V48.5033H166.786V46.105H167.855C168.413 46.105 168.779 46.3901 168.779 46.8701C168.781 47.2633 168.553 47.5035 168.225 47.5985H168.223V47.5985ZM167.837 46.5165H167.242V47.2751H167.837C168.134 47.2751 168.311 47.1299 168.311 46.8954C168.311 46.6487 168.133 46.5165 167.837 46.5165H167.837V46.5165Z" fill="#B8BCC2"/>
</svg>