<svg xmlns="http://www.w3.org/2000/svg" width="200" height="100" viewBox="0 0 200 100" fill="none">
  <path d="M133 34.6505C133 33.1874 134.225 32 135.735 32H167.265C168.776 32 170 33.1874 170 34.6505V66.35C170 67.8135 168.776 69 167.265 69H135.735C134.225 69 133 67.8135 133 66.3505V34.65V34.6505Z" fill="#006699"/>
  <path d="M30 63H45.3332V57.9135H35.5499V38.5095H30V63ZM53.0963 63V46.1315H47.5469V63H53.0963ZM50.3221 43.8288C52.2569 43.8288 53.4615 42.5334 53.4615 40.9137C53.4256 39.2586 52.2569 38 50.3589 38C48.4605 38 47.2191 39.2591 47.2191 40.9137C47.2191 42.5334 48.4236 43.8288 50.2857 43.8288H50.3221ZM55.6727 63H61.2221V53.5795C61.2221 53.0754 61.258 52.5712 61.405 52.2121C61.8055 51.2048 62.7186 50.1612 64.2519 50.1612C66.2605 50.1612 67.064 51.7084 67.064 53.9749V62.9995H72.6125V53.3277C72.6125 48.1461 69.8746 45.7351 66.2231 45.7351C63.2297 45.7351 61.9151 47.4259 61.1848 48.5777H61.2221V46.1315H55.6727C55.7459 47.7145 55.6727 63 55.6727 63ZM80.4415 38.5095H74.8921V63H80.4415V57.5308L81.8284 55.7666L86.1733 63H93L85.699 52.5286L92.0874 45.4049H85.4071C85.4071 45.4049 80.8435 51.778 80.4415 52.5345V38.5095Z" fill="black"/>
  <path d="M108.085 55.8325C108.16 55.4148 108.271 54.6135 108.271 53.7073C108.271 49.5022 106.042 45.2329 100.174 45.2329C93.8973 45.2329 91 49.9875 91 54.2998C91 59.6331 94.5287 62.9636 100.694 62.9636C103.146 62.9636 105.41 62.6178 107.268 61.8887L106.525 58.3177C105.002 58.8016 103.442 59.0439 101.511 59.0439C98.8744 59.0439 96.5721 58.0069 96.3861 55.7975L108.085 55.8316V55.8325ZM96.3491 52.1746C96.4976 50.7864 97.464 48.7382 99.8778 48.7382C102.44 48.7382 103.035 50.9249 103.035 52.1746H96.3496H96.3491ZM122.206 39.0005V47.1762H122.131C121.314 46.0319 119.606 45.2684 117.341 45.2684C112.995 45.2684 109.17 48.5993 109.206 54.2899C109.206 59.5646 112.661 63 116.969 63C119.309 63 121.537 62.0276 122.652 60.1538H122.763L122.986 62.6182H128C127.926 61.473 127.851 59.4952 127.851 57.5519V39H122.205L122.206 39.0005ZM122.206 55.0884C122.206 55.5041 122.169 55.9213 122.094 56.2672C121.761 57.7602 120.424 58.8001 118.789 58.8001C116.45 58.8001 114.927 56.9962 114.927 54.151C114.927 51.4796 116.227 49.3279 118.827 49.3279C120.572 49.3279 121.797 50.4727 122.132 51.8949C122.206 52.2081 122.206 52.5554 122.206 52.8672V55.0879V55.0884Z" fill="black"/>
  <path d="M143.902 62.9995V46.1313H138.329V62.9995H143.903H143.902ZM141.116 43.8287C143.06 43.8287 144.27 42.5333 144.27 40.9146C144.233 39.2591 143.06 38 141.154 38C139.246 38 138 39.2591 138 40.9146C138 42.5333 139.209 43.8287 141.08 43.8287H141.116H141.116ZM146.987 62.9995H152.56V53.5807C152.56 53.077 152.597 52.5724 152.744 52.2128C153.147 51.205 154.064 50.162 155.604 50.162C157.62 50.162 158.427 51.7087 158.427 53.9765V62.9995H164V53.3279C164 48.1469 161.251 45.7359 157.584 45.7359C154.577 45.7359 153.257 47.4262 152.524 48.5775H152.561V46.1318H146.988C147.06 47.7143 146.987 63 146.987 63V62.9995Z" fill="white"/>
</svg>